<svg width="24" height="24" viewBox="0 0 24 24" fill="none" xmlns="http://www.w3.org/2000/svg">
<path d="M12 6.05647C12 5.69687 12.1961 5.35825 12.5294 5.14248C14.8824 3.61917 18.1176 3.61917 20.4706 5.14248C20.8039 5.35825 21 5.69687 21 6.05647V16.2222C21 17.3268 20.1046 18.2222 19 18.2222H14.1697C13.4471 18.2222 12.7808 18.6119 12.4265 19.2417L12.0872 19.8451C12.0489 19.913 11.9511 19.913 11.9128 19.8451L11.5735 19.2417C11.2192 18.6119 10.5529 18.2222 9.83031 18.2222H5C3.89543 18.2222 3 17.3268 3 16.2222V6.05647C3 5.69687 3.19614 5.35825 3.52941 5.14248C5.88235 3.61917 9.11765 3.61917 11.4706 5.14248C11.8039 5.35825 12 5.69687 12 6.05647ZM12 6.05647V19.1111" stroke="black" stroke-width="2" stroke-linecap="round"/>
</svg>
