<svg width="21" height="21" viewBox="0 0 21 21" fill="none" xmlns="http://www.w3.org/2000/svg">
<path d="M18.943 7.39725C18.903 6.50987 18.7596 5.90272 18.5563 5.3723C18.3429 4.82519 18.0595 4.35815 17.5961 3.89778C17.1326 3.43742 16.6692 3.14718 16.1224 2.93702C15.5923 2.73018 14.9855 2.59007 14.0987 2.55004C13.2085 2.51001 12.9251 2.5 10.6647 2.5C8.40089 2.5 8.1175 2.51001 7.23065 2.55004C6.34381 2.59007 5.73702 2.73352 5.20692 2.93702C4.65681 3.15052 4.19005 3.43408 3.72995 3.89778C3.26986 4.36149 2.9798 4.82519 2.76976 5.3723C2.56639 5.90272 2.42303 6.50987 2.38302 7.39725C2.34301 8.28796 2.33301 8.57152 2.33301 10.8333C2.33301 13.0985 2.34301 13.382 2.38302 14.2694C2.42303 15.1568 2.56639 15.7639 2.76976 16.2944C2.98314 16.8415 3.26653 17.3085 3.72995 17.7689C4.19005 18.2326 4.65681 18.5195 5.20358 18.7297C5.73369 18.9365 6.34048 19.0766 7.22732 19.1166C8.1175 19.1567 8.40089 19.1667 10.6613 19.1667C12.9251 19.1667 13.2085 19.1567 14.0954 19.1166C14.9822 19.0766 15.589 18.9331 16.1191 18.7297C16.6659 18.5161 17.1326 18.2326 17.5927 17.7689C18.0528 17.3052 18.3429 16.8415 18.5529 16.2944C18.7596 15.7639 18.8997 15.1568 18.9397 14.2694C18.9797 13.3787 18.9897 13.0951 18.9897 10.8333C18.9897 8.57152 18.983 8.28463 18.943 7.39725ZM17.446 14.2027C17.4094 15.0167 17.2727 15.4604 17.1593 15.7506C17.0093 16.1376 16.8259 16.4178 16.5325 16.7114C16.2391 17.0049 15.9624 17.1817 15.5723 17.3385C15.2789 17.452 14.8355 17.5887 14.0253 17.6254C13.1485 17.6655 12.8851 17.6755 10.658 17.6755C8.43089 17.6755 8.16751 17.6655 7.29067 17.6254C6.47717 17.5887 6.03375 17.452 5.74369 17.3385C5.35695 17.1884 5.07689 17.0049 4.7835 16.7114C4.49011 16.4178 4.3134 16.1409 4.15671 15.7506C4.04335 15.457 3.90666 15.0133 3.86998 14.2027C3.82997 13.3253 3.81997 13.0618 3.81997 10.8333C3.81997 8.60488 3.82997 8.34134 3.86998 7.46397C3.90666 6.64999 4.04335 6.2063 4.15671 5.91607C4.30674 5.52909 4.49011 5.24887 4.7835 4.9553C5.07689 4.66173 5.35361 4.48492 5.74369 4.32813C6.03708 4.21471 6.4805 4.07793 7.29067 4.04123C8.16751 4.0012 8.43089 3.99119 10.658 3.99119C12.8851 3.99119 13.1485 4.0012 14.0253 4.04123C14.8388 4.07793 15.2823 4.21471 15.5723 4.32813C15.9591 4.47825 16.2391 4.66173 16.5325 4.9553C16.8259 5.24887 17.0026 5.52575 17.1593 5.91607C17.2727 6.20963 17.4094 6.65332 17.446 7.46397C17.486 8.34134 17.496 8.60488 17.496 10.8333C17.496 13.0618 17.4827 13.3253 17.446 14.2027Z" fill="#222222"/>
<path d="M10.6578 6.54993C8.29067 6.54993 6.37695 8.46813 6.37695 10.8334C6.37695 13.2019 8.294 15.1168 10.6578 15.1168C13.0216 15.1168 14.9387 13.1952 14.9387 10.8334C14.9387 8.46479 13.0249 6.54993 10.6578 6.54993ZM10.6578 13.6122C9.12417 13.6122 7.88059 12.3679 7.88059 10.8334C7.88059 9.29879 9.12417 8.05446 10.6578 8.05446C12.1914 8.05446 13.435 9.29879 13.435 10.8334C13.435 12.3679 12.1914 13.6122 10.6578 13.6122Z" fill="#222222"/>
<path d="M15.1057 7.38393C15.6581 7.38393 16.1059 6.93585 16.1059 6.38312C16.1059 5.8304 15.6581 5.38232 15.1057 5.38232C14.5533 5.38232 14.1055 5.8304 14.1055 6.38312C14.1055 6.93585 14.5533 7.38393 15.1057 7.38393Z" fill="#222222"/>
</svg>
