<svg width="21" height="21" viewBox="0 0 21 21" fill="none" xmlns="http://www.w3.org/2000/svg">
<path d="M18.9434 7.39725C18.9034 6.50987 18.76 5.90272 18.5566 5.3723C18.3432 4.82519 18.0599 4.35815 17.5964 3.89778C17.133 3.43742 16.6696 3.14718 16.1228 2.93702C15.5927 2.73018 14.9859 2.59007 14.0991 2.55004C13.2089 2.51001 12.9255 2.5 10.665 2.5C8.40125 2.5 8.11786 2.51001 7.23102 2.55004C6.34418 2.59007 5.73739 2.73352 5.20728 2.93702C4.65717 3.15052 4.19041 3.43408 3.73032 3.89778C3.27023 4.36149 2.98017 4.82519 2.77013 5.3723C2.56675 5.90272 2.42339 6.50987 2.38338 7.39725C2.34338 8.28796 2.33337 8.57152 2.33337 10.8333C2.33337 13.0985 2.34338 13.382 2.38338 14.2694C2.42339 15.1568 2.56675 15.7639 2.77013 16.2944C2.9835 16.8415 3.26689 17.3085 3.73032 17.7689C4.19041 18.2326 4.65717 18.5195 5.20395 18.7297C5.73405 18.9365 6.34084 19.0766 7.22769 19.1166C8.11786 19.1567 8.40125 19.1667 10.6617 19.1667C12.9255 19.1667 13.2089 19.1567 14.0957 19.1166C14.9826 19.0766 15.5894 18.9331 16.1195 18.7297C16.6662 18.5161 17.133 18.2326 17.5931 17.7689C18.0532 17.3052 18.3432 16.8415 18.5533 16.2944C18.76 15.7639 18.9 15.1568 18.94 14.2694C18.98 13.3787 18.99 13.0951 18.99 10.8333C18.99 8.57152 18.9834 8.28463 18.9434 7.39725ZM17.4464 14.2027C17.4097 15.0167 17.273 15.4604 17.1597 15.7506C17.0096 16.1376 16.8263 16.4178 16.5329 16.7114C16.2395 17.0049 15.9628 17.1817 15.5727 17.3385C15.2793 17.452 14.8359 17.5887 14.0257 17.6254C13.1489 17.6655 12.8855 17.6755 10.6584 17.6755C8.43126 17.6755 8.16787 17.6655 7.29103 17.6254C6.47754 17.5887 6.03411 17.452 5.74406 17.3385C5.35731 17.1884 5.07726 17.0049 4.78386 16.7114C4.49047 16.4178 4.31377 16.1409 4.15707 15.7506C4.04372 15.457 3.90702 15.0133 3.87035 14.2027C3.83034 13.3253 3.82034 13.0618 3.82034 10.8333C3.82034 8.60488 3.83034 8.34134 3.87035 7.46397C3.90702 6.64999 4.04372 6.2063 4.15707 5.91607C4.3071 5.52909 4.49047 5.24887 4.78386 4.9553C5.07726 4.66173 5.35398 4.48492 5.74406 4.32813C6.03745 4.21471 6.48087 4.07793 7.29103 4.04123C8.16787 4.0012 8.43126 3.99119 10.6584 3.99119C12.8855 3.99119 13.1489 4.0012 14.0257 4.04123C14.8392 4.07793 15.2826 4.21471 15.5727 4.32813C15.9594 4.47825 16.2395 4.66173 16.5329 4.9553C16.8263 5.24887 17.003 5.52575 17.1597 5.91607C17.273 6.20963 17.4097 6.65332 17.4464 7.46397C17.4864 8.34134 17.4964 8.60488 17.4964 10.8333C17.4964 13.0618 17.4831 13.3253 17.4464 14.2027Z" fill="#FAFAFA"/>
<path d="M10.6584 6.54993C8.29128 6.54993 6.37756 8.46813 6.37756 10.8334C6.37756 13.2019 8.29461 15.1168 10.6584 15.1168C13.0222 15.1168 14.9393 13.1952 14.9393 10.8334C14.9393 8.46479 13.0256 6.54993 10.6584 6.54993ZM10.6584 13.6122C9.12478 13.6122 7.8812 12.3679 7.8812 10.8334C7.8812 9.29879 9.12478 8.05446 10.6584 8.05446C12.1921 8.05446 13.4356 9.29879 13.4356 10.8334C13.4356 12.3679 12.1921 13.6122 10.6584 13.6122Z" fill="#FAFAFA"/>
<path d="M15.1059 7.38393C15.6583 7.38393 16.1061 6.93585 16.1061 6.38312C16.1061 5.8304 15.6583 5.38232 15.1059 5.38232C14.5535 5.38232 14.1057 5.8304 14.1057 6.38312C14.1057 6.93585 14.5535 7.38393 15.1059 7.38393Z" fill="#FAFAFA"/>
</svg>
