<svg width="21" height="21" viewBox="0 0 21 21" fill="none" xmlns="http://www.w3.org/2000/svg">
<path d="M16.4523 7.48797C16.4581 7.61997 16.4581 7.74597 16.4581 7.87797C16.4638 11.88 13.5236 16.5 8.14652 16.5C6.56061 16.5 5.00365 16.026 3.66663 15.138C3.89815 15.168 4.12966 15.18 4.36118 15.18C5.67505 15.18 6.9542 14.724 7.99024 13.878C6.74004 13.854 5.64033 13.008 5.25832 11.772C5.69821 11.862 6.14967 11.844 6.57798 11.718C5.2178 11.442 4.23964 10.2 4.23385 8.75398C4.23385 8.74198 4.23385 8.72998 4.23385 8.71798C4.63901 8.95198 5.09626 9.08398 5.55929 9.09598C4.28015 8.20797 3.88078 6.43797 4.65637 5.05196C6.14388 6.94797 8.33174 8.09397 10.6817 8.21997C10.4443 7.16997 10.7685 6.06597 11.5267 5.32196C12.7017 4.17596 14.5538 4.23596 15.6651 5.45396C16.3191 5.32196 16.95 5.06996 17.523 4.71596C17.3031 5.41796 16.8458 6.01197 16.2381 6.38997C16.8169 6.31797 17.3841 6.15597 17.9166 5.91597C17.523 6.52797 17.0253 7.05597 16.4523 7.48797Z" fill="#FAFAFA"/>
</svg>
