<svg width="21" height="21" viewBox="0 0 21 21" fill="none" xmlns="http://www.w3.org/2000/svg">
<path d="M16.4526 7.48797C16.4584 7.61997 16.4584 7.74597 16.4584 7.87797C16.4642 11.88 13.5239 16.5 8.14689 16.5C6.56098 16.5 5.00401 16.026 3.66699 15.138C3.89851 15.168 4.13003 15.18 4.36155 15.18C5.67542 15.18 6.95456 14.724 7.99061 13.878C6.74041 13.854 5.64069 13.008 5.25869 11.772C5.69857 11.862 6.15003 11.844 6.57834 11.718C5.21817 11.442 4.24 10.2 4.23421 8.75398C4.23421 8.74198 4.23421 8.72998 4.23421 8.71798C4.63937 8.95198 5.09662 9.08398 5.55966 9.09598C4.28052 8.20797 3.88115 6.43797 4.65674 5.05196C6.14425 6.94797 8.3321 8.09397 10.682 8.21997C10.4447 7.16997 10.7688 6.06597 11.5271 5.32196C12.702 4.17596 14.5542 4.23596 15.6655 5.45396C16.3195 5.32196 16.9504 5.06996 17.5234 4.71596C17.3035 5.41796 16.8462 6.01197 16.2385 6.38997C16.8173 6.31797 17.3845 6.15597 17.917 5.91597C17.5234 6.52797 17.0256 7.05597 16.4526 7.48797Z" fill="#222222"/>
</svg>
