<svg width="20" height="21" viewBox="0 0 20 21" fill="none" xmlns="http://www.w3.org/2000/svg">
<path fill-rule="evenodd" clip-rule="evenodd" d="M17.8253 3.92833C18.682 4.15898 19.3574 4.83443 19.5881 5.69109C20.0164 7.25616 19.9999 10.5181 19.9999 10.5181C19.9999 10.5181 19.9999 13.7635 19.5881 15.3286C19.3574 16.1853 18.682 16.8607 17.8253 17.0914C16.2602 17.5032 9.99996 17.5032 9.99996 17.5032C9.99996 17.5032 3.75616 17.5032 2.17462 17.0749C1.31795 16.8443 0.642501 16.1688 0.41186 15.3121C0 13.7635 0 10.5016 0 10.5016C0 10.5016 0 7.25616 0.41186 5.69109C0.642501 4.83443 1.33443 4.1425 2.17462 3.91186C3.73969 3.5 9.99996 3.5 9.99996 3.5C9.99996 3.5 16.2602 3.5 17.8253 3.92833ZM13.2125 10.5016L8.00659 13.4999V7.50327L13.2125 10.5016Z" fill="#FAFAFA"/>
</svg>
