<?xml version="1.0" encoding="utf-8"?>
<!-- Generator: Adobe Illustrator 25.3.1, SVG Export Plug-In . SVG Version: 6.00 Build 0)  -->
<svg version="1.1" id="레이어_1" xmlns="http://www.w3.org/2000/svg" xmlns:xlink="http://www.w3.org/1999/xlink" x="0px"
	 y="0px" width="342.6px" height="162.7px" viewBox="0 0 342.6 162.7" style="enable-background:new 0 0 342.6 162.7;"
	 xml:space="preserve">
<style type="text/css">
	.st0{fill:#0A374D;}
	.st1{fill:url(#SVGID_1_);}
	.st2{fill:url(#SVGID_2_);}
	.st3{fill:url(#SVGID_3_);}
	.st4{fill:url(#SVGID_4_);}
	.st5{fill:url(#SVGID_5_);}
	.st6{fill:url(#SVGID_6_);}
	.st7{fill:url(#SVGID_7_);}
	.st8{fill:url(#SVGID_8_);}
	.st9{fill:url(#SVGID_9_);}
	.st10{fill:url(#SVGID_10_);}
</style>
<g>
	<g>
		<path class="st0" d="M154.7,122.4h1.3v10.5h-1.3V122.4z M155.4,122.4h6v1.2h-6V122.4z M155.4,127h5.2v1.2h-5.2V127z M155.4,131.7
			h6v1.2h-6V131.7z"/>
		<path class="st0" d="M164.2,122.4h1.2l5.6,8.8l-0.3-0.1v-8.7h1.2v10.5h-1.2l-5.7-8.8l0.4,0.1v8.6h-1.2V122.4z"/>
		<path class="st0" d="M174.5,122.4h7.4v1.2h-7.4V122.4z M177.5,123h1.3v9.8h-1.3V123z"/>
		<path class="st0" d="M184,122.4h1.3v10.5H184V122.4z M184.7,122.4h6v1.2h-6V122.4z M184.7,127h5.2v1.2h-5.2V127z M184.7,131.7h6
			v1.2h-6V131.7z"/>
		<path class="st0" d="M193.6,122.4h1.3v10.5h-1.3V122.4z M194.2,127.2h3.6c0.3,0,0.6-0.1,0.9-0.2s0.5-0.4,0.6-0.6s0.2-0.6,0.2-1
			s-0.1-0.7-0.2-1c-0.1-0.3-0.3-0.5-0.6-0.6s-0.6-0.2-0.9-0.2h-3.6v-1.2h3.5c0.6,0,1.1,0.1,1.6,0.4c0.5,0.2,0.8,0.6,1.1,1.1
			s0.4,1,0.4,1.6s-0.1,1.1-0.4,1.6s-0.6,0.8-1.1,1.1s-1,0.4-1.6,0.4h-3.5V127.2z M197.3,128.1l1.2-0.3l2.7,5.1h-1.5L197.3,128.1z"/>
		<path class="st0" d="M202.5,122.4h7.4v1.2h-7.4V122.4z M205.6,123h1.3v9.8h-1.3V123z"/>
		<path class="st0" d="M214.3,122.4h1.3l3.9,10.5h-1.4L215,124l-3.1,8.9h-1.4L214.3,122.4z M212.2,129.2h5.5v1.2h-5.5V129.2z"/>
		<path class="st0" d="M223.1,132.8h-1.3v-10.5h1.3V132.8z"/>
		<path class="st0" d="M226.6,122.4h1.2l5.6,8.8l-0.3-0.1v-8.7h1.2v10.5h-1.2l-5.7-8.8l0.4,0.1v8.6h-1.2V122.4z"/>
		<path class="st0" d="M245.3,122.4h1.2v10.5h-1.2v-8.4l0.1,0.5l-2.9,6.5h-0.9l-2.9-6.4l0.1-0.6v8.4h-1.2v-10.5h1.2l3.2,7.2
			L245.3,122.4z"/>
		<path class="st0" d="M249.9,122.4h1.3v10.5h-1.3V122.4z M250.6,122.4h6v1.2h-6V122.4z M250.6,127h5.2v1.2h-5.2V127z M250.6,131.7
			h6v1.2h-6V131.7z"/>
		<path class="st0" d="M259.4,122.4h1.2l5.6,8.8l-0.3-0.1v-8.7h1.2v10.5H266l-5.7-8.8l0.4,0.1v8.6h-1.2L259.4,122.4L259.4,122.4z"/>
		<path class="st0" d="M269.7,122.4h7.4v1.2h-7.4V122.4z M272.7,123h1.3v9.8h-1.3V123z"/>
	</g>
	<g>
		
			<linearGradient id="SVGID_1_" gradientUnits="userSpaceOnUse" x1="29.812" y1="86.8433" x2="101.1514" y2="154.8801" gradientTransform="matrix(1 0 0 -1 0 164)">
			<stop  offset="0" style="stop-color:#2E50A1"/>
			<stop  offset="0.1454" style="stop-color:#3464AA"/>
			<stop  offset="0.2981" style="stop-color:#3971B1"/>
			<stop  offset="0.4344" style="stop-color:#3A76B3"/>
			<stop  offset="0.7588" style="stop-color:#6271AE"/>
			<stop  offset="1" style="stop-color:#6F61A5"/>
		</linearGradient>
		<path class="st1" d="M47.5,23.9c-20.1,20.1-20.1,52.7,0,72.8l7.5-7.5c-16-16-16-41.9,0-57.9s41.9-16,57.9,0l7.5-7.5
			C100.2,3.7,67.6,3.7,47.5,23.9z"/>
		
			<linearGradient id="SVGID_2_" gradientUnits="userSpaceOnUse" x1="53.0429" y1="110.7715" x2="88.7127" y2="65.8541" gradientTransform="matrix(1 0 0 -1 0 164)">
			<stop  offset="0" style="stop-color:#2263AF"/>
			<stop  offset="0.6232" style="stop-color:#3A76B3"/>
		</linearGradient>
		<path class="st2" d="M93,97c-1.2-11.3-6.1-22.3-14.8-31S58.5,52.4,47.1,51.2c-0.1,0.1-0.3,0.1-0.4,0.2c-0.8,3.4-1.1,6.8-1,10.3
			c9.1,0.9,18.1,4.8,25.1,11.8c9.8,9.8,13.6,23.3,11.4,35.9C86.7,106.2,90.4,102,93,97z"/>
		<g>
			
				<linearGradient id="SVGID_3_" gradientUnits="userSpaceOnUse" x1="12.7185" y1="21.4625" x2="61.6037" y2="21.4625" gradientTransform="matrix(1 0 0 -1 0 164)">
				<stop  offset="0" style="stop-color:#9F62A4"/>
				<stop  offset="0.3266" style="stop-color:#9566A7"/>
				<stop  offset="0.6961" style="stop-color:#7666AB"/>
				<stop  offset="1" style="stop-color:#5B6FB3"/>
			</linearGradient>
			<path class="st3" d="M65.6,135.6c-16,11.5-38.4,10.1-52.8-4.3l-7.5,7.5c20.1,20.1,52.7,20.1,72.8,0c2.4-2.4,4.4-4.9,6.2-7.6
				C78.6,133.7,72.3,135.3,65.6,135.6z"/>
		</g>
		<g>
			
				<linearGradient id="SVGID_4_" gradientUnits="userSpaceOnUse" x1="26.59" y1="114.1" x2="106.3199" y2="114.1" gradientTransform="matrix(1 0 0 -1 0 164)">
				<stop  offset="0" style="stop-color:#0F384F"/>
				<stop  offset="0.7706" style="stop-color:#2C5D8A"/>
				<stop  offset="1" style="stop-color:#2D5F8C"/>
			</linearGradient>
			<path class="st4" d="M97.4,69.9l11.2-6.4l2.1-1.2c-7.6-19-26.1-32.4-47.8-32.4c-0.7,0-1.4,0-2.2,0.1c-1.3,1-2.6,2.1-3.8,3.4
				c-4.4,4.4-7.5,9.6-9.3,15.1c4.6-2.2,9.8-3.4,15.3-3.4C78.9,44.9,92.6,55.4,97.4,69.9z"/>
			
				<linearGradient id="SVGID_5_" gradientUnits="userSpaceOnUse" x1="26.59" y1="78.1" x2="106.3199" y2="78.1" gradientTransform="matrix(1 0 0 -1 0 164)">
				<stop  offset="0" style="stop-color:#0F384F"/>
				<stop  offset="0.7706" style="stop-color:#2C5D8A"/>
				<stop  offset="1" style="stop-color:#2D5F8C"/>
			</linearGradient>
			<path class="st5" d="M108.5,99.3l-11.2-6.4c-4.8,14.5-18.4,24.9-34.5,24.9c-20.1,0-36.4-16.3-36.4-36.4c0-5.5,1.2-10.7,3.4-15.3
				c-1-9.2,0.4-18.7,4.2-27.3c-13.7,9.3-22.7,24.9-22.7,42.7c0,28.4,23.1,51.5,51.5,51.5c21.7,0,40.2-13.4,47.8-32.4L108.5,99.3z"/>
		</g>
	</g>
	<g>
		
			<linearGradient id="SVGID_6_" gradientUnits="userSpaceOnUse" x1="306.4" y1="88.1588" x2="306.4" y2="48.3001" gradientTransform="matrix(1 0 0 -1 0 164)">
			<stop  offset="0" style="stop-color:#0F384F"/>
			<stop  offset="0.7706" style="stop-color:#2C5D8A"/>
			<stop  offset="1" style="stop-color:#2D5F8C"/>
		</linearGradient>
		<path class="st6" d="M306.4,51.4c-15.9,0-28.8,12.9-28.8,28.8s12.9,28.8,28.8,28.8s28.8-12.9,28.8-28.8
			C335.2,64.3,322.3,51.4,306.4,51.4z M306.4,100.7c-11.3,0-20.4-9.2-20.4-20.4c0-11.3,9.2-20.4,20.4-20.4
			c11.3,0,20.4,9.2,20.4,20.4C326.9,91.6,317.7,100.7,306.4,100.7z"/>
		
			<linearGradient id="SVGID_7_" gradientUnits="userSpaceOnUse" x1="265.05" y1="88.1588" x2="265.05" y2="48.3001" gradientTransform="matrix(1 0 0 -1 0 164)">
			<stop  offset="0" style="stop-color:#0F384F"/>
			<stop  offset="0.7706" style="stop-color:#2C5D8A"/>
			<stop  offset="1" style="stop-color:#2D5F8C"/>
		</linearGradient>
		<polygon class="st7" points="260.9,107.8 260.9,52.8 269.2,52.8 269.2,107.8 		"/>
		
			<linearGradient id="SVGID_8_" gradientUnits="userSpaceOnUse" x1="176.25" y1="88.1588" x2="176.25" y2="48.3001" gradientTransform="matrix(1 0 0 -1 0 164)">
			<stop  offset="0" style="stop-color:#0F384F"/>
			<stop  offset="0.7706" style="stop-color:#2C5D8A"/>
			<stop  offset="1" style="stop-color:#2D5F8C"/>
		</linearGradient>
		<polygon class="st8" points="199.2,52.8 153.3,52.8 153.3,61.1 172.1,61.1 172.1,107.8 180.5,107.8 180.5,61.1 199.2,61.1 		"/>
		
			<linearGradient id="SVGID_9_" gradientUnits="userSpaceOnUse" x1="136.2" y1="88.1588" x2="136.2" y2="48.3001" gradientTransform="matrix(1 0 0 -1 0 164)">
			<stop  offset="0" style="stop-color:#0F384F"/>
			<stop  offset="0.7706" style="stop-color:#2C5D8A"/>
			<stop  offset="1" style="stop-color:#2D5F8C"/>
		</linearGradient>
		<polygon class="st9" points="127.4,77.1 145,77.1 145,85.5 127.4,85.5 		"/>
		
			<linearGradient id="SVGID_10_" gradientUnits="userSpaceOnUse" x1="230.95" y1="88.1588" x2="230.95" y2="48.3001" gradientTransform="matrix(1 0 0 -1 0 164)">
			<stop  offset="0" style="stop-color:#0F384F"/>
			<stop  offset="0.7706" style="stop-color:#2C5D8A"/>
			<stop  offset="1" style="stop-color:#2D5F8C"/>
		</linearGradient>
		<path class="st10" d="M244.6,107.8h9.7l-14-24.3c7-1.5,12.3-7.8,12.3-15.2c0-8.4-6.7-15.3-15.1-15.6l0,0h-29.9l0,0v8.4v14.4v8.4
			v23.9h8.4V83.9h14.8L244.6,107.8z M216,75.6V61.1h7.2h14.3l0,0c3.8,0.3,6.7,3.4,6.7,7.2s-3,6.9-6.7,7.2l0,0h-1.8H226h-2.8H216
			V75.6z"/>
	</g>
</g>
</svg>
